<svg width="142" height="142" viewBox="0 0 142 142" fill="none" xmlns="http://www.w3.org/2000/svg">
    <rect x="1" y="1" width="140" height="140" rx="70" stroke="url(#paint0_linear_224_281)"/>
    <path fill-rule="evenodd" clip-rule="evenodd" d="M70.3003 31.625V63.0817L58.2621 34.0195L55.3525 35.2257L67.3902 64.2879L45.146 42.0437L42.9192 44.271L65.1625 66.5148L36.0998 54.4762L34.8941 57.3863L63.9571 69.4253H32.5V72.5752H63.9567L34.8941 84.6137L36.0998 87.5238L65.1625 75.4848L42.9192 97.7285L45.146 99.9558L67.3902 77.7121L55.3525 106.774L58.2621 107.98L70.3003 78.9183V110.375H73.4502V78.9183L85.4879 107.98L88.3979 106.774L76.3602 77.7121L98.604 99.9558L100.831 97.7285L78.5875 75.4848L107.65 87.5238L108.856 84.6137L79.7929 72.5752H111.25V69.4253H79.7929L108.856 57.3863L107.65 54.4762L78.5875 66.5148L100.831 44.271L98.604 42.0437L76.3602 64.2879L88.3979 35.2257L85.4879 34.0195L73.4502 63.0817V31.625H70.3003Z" fill="#E72A66"/>
    <defs>
        <linearGradient id="paint0_linear_224_281" x1="71" y1="-69" x2="-69" y2="71" gradientUnits="userSpaceOnUse">
            <stop stop-color="#32C5FF"/>
            <stop offset="0.512584" stop-color="#B620E0"/>
            <stop offset="1" stop-color="#F7B500"/>
        </linearGradient>
    </defs>
</svg>
