<svg width="15" height="30" viewBox="0 0 15 30" fill="none" xmlns="http://www.w3.org/2000/svg">
    <g clip-path="url(#clip0_291_319)">
        <path d="M0.00292969 22.8544C0.00292969 24.7495 0.793032 26.567 2.19943 27.9071C3.60582 29.2471 5.51331 30 7.50226 30C9.4912 30 11.3987 29.2471 12.8051 27.9071C14.2115 26.567 15.0016 24.7495 15.0016 22.8544V18.2194C15.0009 17.1444 14.7459 16.0834 14.2554 15.1153C13.7649 14.1472 13.0517 13.297 12.1686 12.6278C11.2856 11.9587 10.2557 11.4879 9.15531 11.2505C8.05497 11.0131 6.91261 11.0152 5.81322 11.2566C5.73864 11.2714 5.66994 11.3059 5.61502 11.3563C5.5601 11.4066 5.52117 11.4706 5.50269 11.541C5.48421 11.6114 5.48694 11.6854 5.51055 11.7544C5.53417 11.8234 5.57772 11.8847 5.63621 11.9312L5.67809 11.9686L10.002 15.9006C10.3452 16.2184 10.6178 16.5988 10.8035 17.019C10.9892 17.4393 11.0843 17.8908 11.083 18.3468V22.7243C11.083 23.6292 10.7058 24.497 10.0342 25.1369C9.36271 25.7767 8.45193 26.1362 7.50226 26.1362C6.55258 26.1362 5.6418 25.7767 4.97027 25.1369C4.29875 24.497 3.9215 23.6292 3.9215 22.7243V21.245C3.9215 21.1084 3.86455 20.9774 3.76319 20.8808C3.66183 20.7843 3.52435 20.73 3.381 20.73H0.543422C0.400074 20.73 0.262598 20.7843 0.161236 20.8808C0.0598738 20.9774 0.00292969 21.1084 0.00292969 21.245V22.8544Z" fill="white"/>
        <path d="M0 11.7805C0.000899759 12.8554 0.256118 13.9163 0.746673 14.8843C1.23723 15.8522 1.9505 16.7024 2.83343 17.3714C3.71637 18.0405 4.74625 18.5113 5.84648 18.7488C6.94672 18.9863 8.089 18.9845 9.18836 18.7433C9.26158 18.7264 9.32853 18.6907 9.38192 18.64C9.43532 18.5894 9.47312 18.5258 9.49123 18.4561C9.50934 18.3864 9.50706 18.3133 9.48464 18.2448C9.46221 18.1763 9.42049 18.1149 9.36402 18.0674L9.32348 18.0313L4.99955 14.0993C4.65668 13.7813 4.38432 13.4009 4.19863 12.9807C4.01295 12.5605 3.91771 12.109 3.91857 11.6531V7.27556C3.91857 6.37068 4.29582 5.50285 4.96734 4.863C5.63887 4.22315 6.54965 3.86369 7.49932 3.86369C8.449 3.86369 9.35978 4.22315 10.0313 4.863C10.7028 5.50285 11.0801 6.37068 11.0801 7.27556V8.75619C11.0801 8.89277 11.137 9.02376 11.2384 9.12035C11.3398 9.21693 11.4772 9.27118 11.6206 9.27118H14.4582C14.6015 9.27118 14.739 9.21693 14.8403 9.12035C14.9417 9.02376 14.9986 8.89277 14.9986 8.75619V7.14552C14.9614 5.27388 14.1549 3.49089 12.7525 2.17982C11.3502 0.868754 9.46397 0.134277 7.49932 0.134277C5.53468 0.134277 3.64846 0.868754 2.24612 2.17982C0.843785 3.49089 0.0372902 5.27388 0 7.14552V11.7805Z" fill="white"/>
    </g>
    <defs>
        <clipPath id="clip0_291_319">
            <rect width="15" height="30" fill="white"/>
        </clipPath>
    </defs>
</svg>
