<svg width="26" height="21" viewBox="0 0 26 21" fill="none" xmlns="http://www.w3.org/2000/svg">
    <g clip-path="url(#clip0_291_310)">
        <path d="M17.9316 0H18.1234C18.1527 0.0124413 18.1834 0.0215128 18.2148 0.0270355C19.6279 0.111287 20.8459 0.624342 21.8555 1.61147C21.9098 1.66491 22.0518 1.67434 22.1355 1.64793C22.8389 1.42787 23.5473 1.20781 24.2417 0.956317C24.6029 0.825538 24.9399 0.628743 25.3676 0.423144C25.2084 0.773354 25.094 1.06195 24.9501 1.33545C24.5224 2.14841 23.8939 2.78722 23.1113 3.2877L23.1586 3.38012L26.0006 2.60299C25.9079 2.73692 25.8338 2.84946 25.7538 2.95823C25.1358 3.79846 24.3928 4.54261 23.5499 5.16575C23.4861 5.20772 23.4348 5.26555 23.4011 5.33336C23.3674 5.40116 23.3525 5.47653 23.3581 5.5518C23.3465 6.28365 23.3581 7.02117 23.2673 7.74485C22.938 10.3422 22.0115 12.7264 20.4642 14.8559C18.1304 18.0638 14.9994 20.0569 11.0448 20.7485C10.452 20.8529 9.8523 20.917 9.25447 21H7.0876C7.00873 20.9734 6.92764 20.9536 6.84527 20.9409C4.91656 20.7891 3.03696 20.2662 1.3133 19.4017C0.865729 19.1804 0.43734 18.9214 0 18.6793C1.38848 18.7751 2.78344 18.6395 4.12596 18.2782C5.46977 17.9196 6.72408 17.2927 7.81074 16.4366C5.34399 16.1945 3.29604 14.6516 2.88747 12.7459H5.11189L5.1266 12.6396C3.92072 12.334 2.92519 11.7078 2.16113 10.7477C1.39706 9.78763 1.00639 8.67665 1.00064 7.40407C1.74488 7.78132 2.48849 8.01395 3.36637 8.04539C2.24233 7.16515 1.48338 6.11766 1.16304 4.79919C0.838875 3.46563 1.0991 2.22135 1.78517 0.998443C3.18031 2.64638 4.80115 3.95982 6.70844 4.91425C8.61573 5.86868 10.6151 6.40563 12.7558 6.48611C12.7581 6.44653 12.7581 6.40685 12.7558 6.36727C12.2148 3.78629 13.743 1.14368 16.2858 0.321916C16.8133 0.153413 17.3817 0.105 17.9316 0Z" fill="white"/>
    </g>
    <defs>
        <clipPath id="clip0_291_310">
            <rect width="26" height="21" fill="white"/>
        </clipPath>
    </defs>
</svg>
