<svg width="23" height="23" viewBox="0 0 23 23" fill="none" xmlns="http://www.w3.org/2000/svg">
    <g clip-path="url(#clip0_291_314)">
        <path d="M5.20841 2.50521C5.20841 3.88288 4.20721 4.99752 2.55767 4.99752C1.00379 4.99752 0.00683594 3.88288 0.00683594 2.50521C0.00683594 1.09304 1.04205 0.0107422 2.62782 0.0107422C4.21359 0.0107422 5.17653 1.08226 5.20841 2.50521ZM0.13013 23V6.95515H5.04686V23H0.13013Z" fill="white"/>
        <path d="M7.99002 12.0734C7.99002 10.0727 7.92412 8.40827 7.86035 6.95514H12.1309L12.3562 9.18874H12.454C13.0917 8.13878 14.686 6.60156 17.3431 6.60156C20.5784 6.60156 23.0038 8.80066 23.0038 13.5244V23.0107H18.0828V14.1087C18.0828 12.0411 17.3707 10.6311 15.5915 10.6311C14.2332 10.6311 13.4254 11.5819 13.0683 12.5003C12.9423 12.9035 12.8876 13.3261 12.9067 13.7486V22.9999H7.99002V12.0734Z" fill="white"/>
    </g>
    <defs>
        <clipPath id="clip0_291_314">
            <rect width="23" height="23" fill="white"/>
        </clipPath>
    </defs>
</svg>
