<svg width="50" height="50" viewBox="0 0 50 50" fill="none" xmlns="http://www.w3.org/2000/svg">
    <path fill-rule="evenodd" clip-rule="evenodd" d="M8.93359 5.83119C13.4361 2.05502 19.1274 -0.0100807 25.0038 4.62543e-05C30.8804 -0.0112695 36.5721 2.05398 41.074 5.83119H8.93359ZM40.9562 44.2725C36.4694 47.9838 30.8263 50.0099 25.0035 50C19.1828 50.0094 13.542 47.9833 9.05762 44.2725H40.9562ZM36.9348 12.6917H46.8008C45.9899 11.2584 45.0387 9.90914 43.9612 8.66382H6.04493C4.46701 10.4896 3.1594 12.5324 2.16211 14.7299H35.4839L36.9348 12.6917ZM1.11234 32.5343C0.493069 30.5658 0.119457 28.5284 0 26.4682L50 26.4613C49.9235 27.8079 49.7364 29.1458 49.4404 30.4616H23.9188L22.4471 32.5343H1.11234ZM6.13522 41.4536H16.0495L17.5004 39.3809H45.4747C46.3705 38.1124 47.1476 36.7641 47.7961 35.353H2.21094C3.21828 37.565 4.54004 39.6198 6.13522 41.4536ZM49.8135 21.6113H30.3164L28.8863 23.6356H0C0.109215 21.581 0.47358 19.548 1.0847 17.5833H48.9222C49.3296 18.8992 49.6277 20.2464 49.8135 21.6113Z" fill="white"/>
</svg>
